<svg xmlns="http://www.w3.org/2000/svg" width="512" height="512" viewBox="0 0 512 512"><path d="M 219.015 108.485 L 184.540 142.971 218.500 176.985 C 237.178 195.693, 253.153 211, 254 211 C 254.847 211, 270.822 195.693, 289.500 176.985 L 323.460 142.971 288.985 108.485 C 270.024 89.518, 254.281 74, 254 74 C 253.719 74, 237.976 89.518, 219.015 108.485 M 161.466 166.063 L 144.509 183.127 150.334 188.724 L 156.158 194.321 173.079 177.421 C 182.385 168.127, 190 160.201, 190 159.809 C 190 158.861, 180.114 149, 179.164 149 C 178.757 149, 170.793 156.679, 161.466 166.063 M 323.712 153.784 C 321.121 156.416, 319 159.140, 319 159.837 C 319 161.530, 350.552 193, 352.248 193 C 352.978 193, 355.797 190.744, 358.513 187.987 L 363.451 182.973 346.487 165.987 C 337.156 156.644, 329.275 149, 328.973 149 C 328.672 149, 326.304 151.153, 323.712 153.784 M 193.778 180.312 C 185.585 186.559, 174.759 198.319, 171.316 204.712 L 169.535 208.019 193.767 232.267 C 207.095 245.604, 218 257.190, 218 258.015 C 218 258.840, 207.200 270.309, 194 283.500 C 180.800 296.691, 170 307.986, 170 308.599 C 170 310.175, 179.482 322.706, 184.388 327.614 C 189.632 332.862, 201.708 342, 203.397 342 C 204.107 342, 215.499 331.200, 228.711 318 C 241.924 304.800, 253.360 294, 254.125 294 C 254.890 294, 266.309 304.800, 279.500 318 C 292.691 331.200, 304.163 341.996, 304.992 341.990 C 305.821 341.985, 309.477 339.744, 313.116 337.011 C 324.110 328.753, 338.024 312.698, 337.983 308.320 C 337.973 307.288, 327.576 296.153, 313.983 282.614 C 300.792 269.477, 290 258.264, 290 257.697 C 290 257.129, 300.800 245.876, 314 232.691 C 327.200 219.505, 338 208.075, 338 207.289 C 338 201.531, 310.739 174.046, 304.992 174.010 C 304.163 174.004, 292.691 184.800, 279.500 198 C 266.309 211.200, 255.019 222, 254.413 222 C 253.806 222, 242.472 211.200, 229.227 198 C 215.982 184.800, 204.450 174, 203.600 174 C 202.750 174, 198.330 176.840, 193.778 180.312 M 104.015 223.485 L 69.540 257.971 103.500 291.985 C 122.178 310.693, 138.147 326, 138.986 326 C 140.972 326, 207 259.961, 207 257.975 C 207 256.671, 140.247 189, 138.960 189 C 138.701 189, 122.976 204.518, 104.015 223.485 M 335.016 222.498 C 316.307 241.178, 301 257.153, 301 258 C 301 258.847, 316.307 274.822, 335.016 293.502 L 369.033 327.464 403.765 292.732 L 438.496 258 403.765 223.268 L 369.033 188.536 335.016 222.498 M 219.244 338.256 C 200.960 356.546, 186 372.186, 186 373.011 C 186 373.836, 201.301 389.807, 220.002 408.502 L 254.004 442.493 288.748 407.748 L 323.493 373.004 289.502 339.002 C 270.807 320.301, 254.831 305, 254 305 C 253.169 305, 237.529 319.965, 219.244 338.256 M 150.333 327.277 L 144.501 332.881 161.733 350.191 L 178.966 367.500 184.726 361.746 L 190.486 355.993 173.325 338.833 L 156.165 321.672 150.333 327.277 M 335.461 338.092 C 326.412 347.116, 319.006 355.192, 319.004 356.038 C 319.002 356.883, 321.256 359.797, 324.013 362.513 L 329.027 367.451 346.013 350.487 C 355.356 341.156, 363 333.216, 363 332.843 C 363 332.097, 356.551 325.334, 353.703 323.092 C 352.072 321.808, 350.457 323.136, 335.461 338.092" stroke="none" fill="#0857fc" fill-rule="evenodd"></path><path d="M 220 0.971 C 203.111 3.365, 174.504 10.564, 171.550 13.164 C 171.028 13.624, 169.592 14, 168.359 14 C 167.126 14, 165.840 14.450, 165.500 15 C 165.160 15.550, 164.009 16, 162.941 16 C 161.873 16, 161 16.450, 161 17 C 161 17.550, 159.902 18, 158.559 18 C 157.216 18, 155.840 18.450, 155.500 19 C 155.160 19.550, 154.009 20, 152.941 20 C 151.873 20, 151 20.450, 151 21 C 151 21.550, 150.100 22, 149 22 C 147.900 22, 147 22.450, 147 23 C 147 23.550, 146.100 24, 145 24 C 143.900 24, 143 24.450, 143 25 C 143 25.550, 142.368 26, 141.595 26 C 140.210 26, 131.975 29.949, 131 31.080 C 130.725 31.399, 129.037 32.297, 127.250 33.074 C 125.463 33.852, 124 34.828, 124 35.244 C 124 35.660, 123.530 36, 122.955 36 C 122.003 36, 107.173 45.553, 106 46.922 C 105.725 47.243, 103.700 48.733, 101.500 50.234 C 97.193 53.172, 95.257 54.777, 84.529 64.308 C 75.783 72.077, 72.092 75.761, 64.280 84.524 C 55.279 94.618, 53.281 97.033, 50.234 101.500 C 48.733 103.700, 47.250 105.725, 46.937 106 C 45.551 107.218, 40 115.965, 40 116.930 C 40 117.519, 39.621 118, 39.157 118 C 38.694 118, 37.273 120.025, 36 122.500 C 34.727 124.975, 33.306 127, 32.843 127 C 32.379 127, 32 127.862, 32 128.917 C 32 129.971, 31.658 130.983, 31.241 131.167 C 30.239 131.607, 20.245 152.192, 16.757 161 C 16.212 162.375, 15.369 164.281, 14.883 165.236 C 14.397 166.191, 14 167.789, 14 168.786 C 14 169.784, 13.621 171.028, 13.158 171.550 C 11.542 173.375, 6.931 189.665, 2.842 208 C 0.617 217.974, 0.500 220.355, 0.500 255.500 C 0.500 281.057, 0.879 294.201, 1.726 298 C 2.400 301.025, 3.876 307.775, 5.006 313 C 7.289 323.560, 11.872 338.983, 13.164 340.450 C 13.624 340.973, 14 342.408, 14 343.641 C 14 344.874, 14.450 346.160, 15 346.500 C 15.550 346.840, 16 347.991, 16 349.059 C 16 350.127, 16.450 351, 17 351 C 17.550 351, 18 352.098, 18 353.441 C 18 354.784, 18.450 356.160, 19 356.500 C 19.550 356.840, 20 357.991, 20 359.059 C 20 360.127, 20.450 361, 21 361 C 21.550 361, 22 361.900, 22 363 C 22 364.100, 22.450 365, 23 365 C 23.550 365, 24 365.900, 24 367 C 24 368.100, 24.450 369, 25 369 C 25.550 369, 26 369.632, 26 370.405 C 26 371.790, 29.949 380.025, 31.080 381 C 31.399 381.275, 32.297 382.962, 33.074 384.750 C 33.852 386.538, 34.828 388, 35.244 388 C 35.660 388, 36 388.470, 36 389.045 C 36 389.997, 45.553 404.827, 46.922 406 C 47.243 406.275, 48.733 408.300, 50.234 410.500 C 53.172 414.807, 54.777 416.743, 64.308 427.471 C 72.077 436.217, 75.761 439.908, 84.524 447.720 C 94.618 456.721, 97.033 458.719, 101.500 461.766 C 103.700 463.267, 105.725 464.750, 106 465.063 C 107.218 466.449, 115.965 472, 116.930 472 C 117.519 472, 118 472.379, 118 472.843 C 118 473.306, 120.025 474.727, 122.500 476 C 124.975 477.273, 127 478.694, 127 479.157 C 127 479.621, 127.862 480, 128.917 480 C 129.971 480, 130.983 480.342, 131.167 480.759 C 131.607 481.761, 152.192 491.755, 161 495.243 C 162.375 495.788, 164.281 496.631, 165.236 497.117 C 166.191 497.603, 167.789 498, 168.786 498 C 169.784 498, 171.028 498.379, 171.550 498.842 C 173.375 500.458, 189.665 505.069, 208 509.158 C 217.974 511.383, 220.355 511.500, 255.500 511.500 C 280.414 511.500, 294.297 511.110, 298 510.307 C 323.044 504.876, 335.895 501.429, 340.236 498.980 C 341.191 498.441, 342.852 498, 343.927 498 C 345.002 498, 346.160 497.550, 346.500 497 C 346.840 496.450, 347.991 496, 349.059 496 C 350.127 496, 351 495.550, 351 495 C 351 494.450, 352.098 494, 353.441 494 C 354.784 494, 356.160 493.550, 356.500 493 C 356.840 492.450, 357.991 492, 359.059 492 C 360.127 492, 361 491.550, 361 491 C 361 490.450, 361.900 490, 363 490 C 364.100 490, 365 489.550, 365 489 C 365 488.450, 365.900 488, 367 488 C 368.100 488, 369 487.550, 369 487 C 369 486.450, 369.632 486, 370.405 486 C 371.790 486, 380.025 482.051, 381 480.920 C 381.275 480.601, 382.962 479.703, 384.750 478.926 C 386.537 478.148, 388 477.172, 388 476.756 C 388 476.340, 388.470 476, 389.045 476 C 389.997 476, 404.827 466.447, 406 465.078 C 406.275 464.757, 408.300 463.267, 410.500 461.766 C 414.807 458.828, 416.743 457.223, 427.471 447.692 C 436.217 439.923, 439.908 436.239, 447.720 427.476 C 456.721 417.382, 458.719 414.967, 461.766 410.500 C 463.267 408.300, 464.750 406.275, 465.063 406 C 466.449 404.782, 472 396.035, 472 395.070 C 472 394.481, 472.379 394, 472.843 394 C 473.306 394, 474.727 391.975, 476 389.500 C 477.273 387.025, 478.694 385, 479.157 385 C 479.621 385, 480 384.137, 480 383.083 C 480 382.029, 480.342 381.017, 480.759 380.833 C 481.761 380.393, 491.755 359.808, 495.243 351 C 495.788 349.625, 496.631 347.719, 497.117 346.764 C 497.603 345.809, 498 344.211, 498 343.214 C 498 342.216, 498.379 340.973, 498.842 340.450 C 499.682 339.502, 503.545 327.625, 505.169 321 C 508.105 309.016, 511 294.053, 511 290.857 C 511 288.800, 511.450 286.840, 512 286.500 C 512.632 286.109, 513 274.470, 513 254.882 C 513 234.470, 512.658 224.093, 512 224.500 C 511.396 224.873, 511 223.515, 511 221.073 C 511 218.849, 510.567 215.110, 510.038 212.764 C 509.509 210.419, 508.088 204, 506.880 198.500 C 504.578 188.023, 500.648 174.721, 498.980 171.764 C 498.441 170.809, 498 169.148, 498 168.073 C 498 166.998, 497.550 165.840, 497 165.500 C 496.450 165.160, 496 164.009, 496 162.941 C 496 161.873, 495.550 161, 495 161 C 494.450 161, 494 159.902, 494 158.559 C 494 157.216, 493.550 155.840, 493 155.500 C 492.450 155.160, 492 154.009, 492 152.941 C 492 151.873, 491.550 151, 491 151 C 490.450 151, 490 150.100, 490 149 C 490 147.900, 489.550 147, 489 147 C 488.450 147, 488 146.100, 488 145 C 488 143.900, 487.550 143, 487 143 C 486.450 143, 486 142.368, 486 141.595 C 486 140.210, 482.051 131.975, 480.920 131 C 480.601 130.725, 479.703 129.037, 478.926 127.250 C 478.148 125.463, 477.172 124, 476.756 124 C 476.340 124, 476 123.530, 476 122.955 C 476 122.003, 466.447 107.173, 465.078 106 C 464.757 105.725, 463.267 103.700, 461.766 101.500 C 458.828 97.193, 457.223 95.257, 447.692 84.529 C 439.923 75.783, 436.239 72.092, 427.476 64.280 C 417.382 55.279, 414.967 53.281, 410.500 50.234 C 408.300 48.733, 406.275 47.250, 406 46.937 C 404.782 45.551, 396.035 40, 395.070 40 C 394.481 40, 394 39.621, 394 39.157 C 394 38.694, 391.975 37.273, 389.500 36 C 387.025 34.727, 385 33.306, 385 32.843 C 385 32.379, 384.137 32, 383.083 32 C 382.029 32, 381.017 31.658, 380.833 31.241 C 380.393 30.239, 359.808 20.245, 351 16.757 C 349.625 16.212, 347.719 15.369, 346.764 14.883 C 345.809 14.397, 344.211 14, 343.214 14 C 342.216 14, 340.973 13.624, 340.450 13.164 C 339.077 11.955, 324.049 7.493, 313 5.012 C 307.775 3.839, 301.700 2.405, 299.500 1.824 C 294.696 0.556, 227.978 -0.159, 220 0.971 M 219.015 108.485 L 184.540 142.971 218.500 176.985 C 237.178 195.693, 253.153 211, 254 211 C 254.847 211, 270.822 195.693, 289.500 176.985 L 323.460 142.971 288.985 108.485 C 270.024 89.518, 254.281 74, 254 74 C 253.719 74, 237.976 89.518, 219.015 108.485 M 161.466 166.063 L 144.509 183.127 150.334 188.724 L 156.158 194.321 173.079 177.421 C 182.385 168.127, 190 160.201, 190 159.809 C 190 158.861, 180.114 149, 179.164 149 C 178.757 149, 170.793 156.679, 161.466 166.063 M 323.712 153.784 C 321.121 156.416, 319 159.140, 319 159.837 C 319 161.530, 350.552 193, 352.248 193 C 352.978 193, 355.797 190.744, 358.513 187.987 L 363.451 182.973 346.487 165.987 C 337.156 156.644, 329.275 149, 328.973 149 C 328.672 149, 326.304 151.153, 323.712 153.784 M 193.778 180.312 C 185.585 186.559, 174.759 198.319, 171.316 204.712 L 169.535 208.019 193.767 232.267 C 207.095 245.604, 218 257.190, 218 258.015 C 218 258.840, 207.200 270.309, 194 283.500 C 180.800 296.691, 170 307.986, 170 308.599 C 170 310.175, 179.482 322.706, 184.388 327.614 C 189.632 332.862, 201.708 342, 203.397 342 C 204.107 342, 215.499 331.200, 228.711 318 C 241.924 304.800, 253.360 294, 254.125 294 C 254.890 294, 266.309 304.800, 279.500 318 C 292.691 331.200, 304.163 341.996, 304.992 341.990 C 305.821 341.985, 309.477 339.744, 313.116 337.011 C 324.110 328.753, 338.024 312.698, 337.983 308.320 C 337.973 307.288, 327.576 296.153, 313.983 282.614 C 300.792 269.477, 290 258.264, 290 257.697 C 290 257.129, 300.800 245.876, 314 232.691 C 327.200 219.505, 338 208.075, 338 207.289 C 338 201.531, 310.739 174.046, 304.992 174.010 C 304.163 174.004, 292.691 184.800, 279.500 198 C 266.309 211.200, 255.019 222, 254.413 222 C 253.806 222, 242.472 211.200, 229.227 198 C 215.982 184.800, 204.450 174, 203.600 174 C 202.750 174, 198.330 176.840, 193.778 180.312 M 104.015 223.485 L 69.540 257.971 103.500 291.985 C 122.178 310.693, 138.147 326, 138.986 326 C 140.972 326, 207 259.961, 207 257.975 C 207 256.671, 140.247 189, 138.960 189 C 138.701 189, 122.976 204.518, 104.015 223.485 M 335.016 222.498 C 316.307 241.178, 301 257.153, 301 258 C 301 258.847, 316.307 274.822, 335.016 293.502 L 369.033 327.464 403.765 292.732 L 438.496 258 403.765 223.268 L 369.033 188.536 335.016 222.498 M 0.445 256 C 0.445 273.325, 0.582 280.413, 0.748 271.750 C 0.915 263.087, 0.915 248.912, 0.748 240.250 C 0.582 231.587, 0.445 238.675, 0.445 256 M 219.244 338.256 C 200.960 356.546, 186 372.186, 186 373.011 C 186 373.836, 201.301 389.807, 220.002 408.502 L 254.004 442.493 288.748 407.748 L 323.493 373.004 289.502 339.002 C 270.807 320.301, 254.831 305, 254 305 C 253.169 305, 237.529 319.965, 219.244 338.256 M 150.333 327.277 L 144.501 332.881 161.733 350.191 L 178.966 367.500 184.726 361.746 L 190.486 355.993 173.325 338.833 L 156.165 321.672 150.333 327.277 M 335.461 338.092 C 326.412 347.116, 319.006 355.192, 319.004 356.038 C 319.002 356.883, 321.256 359.797, 324.013 362.513 L 329.027 367.451 346.013 350.487 C 355.356 341.156, 363 333.216, 363 332.843 C 363 332.097, 356.551 325.334, 353.703 323.092 C 352.072 321.808, 350.457 323.136, 335.461 338.092" stroke="none" fill="#f9fafc" fill-rule="evenodd"></path></svg>